<svg xmlns="http://www.w3.org/2000/svg" width="23.024" height="27.621" viewBox="0 0 23.024 27.621">
    <path id="Icon_ionic-ios-flag" data-name="Icon ionic-ios-flag" d="M29.1,5.708c-.223.036-.46.072-.712.1a42.4,42.4,0,0,1-4.359.374A26.467,26.467,0,0,1,18.4,5.306a27.55,27.55,0,0,0-5.8-.806c-4.042,0-5.416.87-5.56.964l-.295.209V31.085a1.027,1.027,0,0,0,.885,1.029,1.007,1.007,0,0,0,1.129-1V20.008a.585.585,0,0,1,.46-.568,17.454,17.454,0,0,1,3.381-.281c1.885,0,3.647.719,5.51,1.115a25.359,25.359,0,0,0,6,.827,34.1,34.1,0,0,0,5.164-.475.58.58,0,0,0,.5-.568V6.277A.586.586,0,0,0,29.1,5.708Z" transform="translate(-6.75 -4.5)" fill="#555860"/>
</svg>