<svg id="Group_198" data-name="Group 198" xmlns="http://www.w3.org/2000/svg" width="48.53" height="48.531" viewBox="0 0 48.53 48.531">
<path id="Path_13" data-name="Path 13" d="M24.265,0A24.265,24.265,0,1,1,0,24.265,24.265,24.265,0,0,1,24.265,0Z" transform="translate(0 0)" fill="#e0e3d3"/>
<path id="Icon_ionic-ios-star" data-name="Icon ionic-ios-star" d="M33.928,13.959H23.116l-3.285-9.8a1.191,1.191,0,0,0-2.234,0l-3.285,9.8H3.426A1.179,1.179,0,0,0,2.25,15.135a.864.864,0,0,0,.022.2,1.13,1.13,0,0,0,.492.831l8.886,6.262L8.24,32.341a1.179,1.179,0,0,0,.4,1.323,1.137,1.137,0,0,0,.661.287,1.441,1.441,0,0,0,.735-.265L18.714,27.5l8.673,6.181a1.377,1.377,0,0,0,.735.265,1.056,1.056,0,0,0,.654-.287,1.165,1.165,0,0,0,.4-1.323l-3.41-9.915L34.582,16.1l.213-.184a1.233,1.233,0,0,0,.382-.786A1.245,1.245,0,0,0,33.928,13.959Z" transform="translate(5.318 4.465)" fill="#ed967b"/>
</svg>